# xmcd
#
# Track frame offsets: 
#        150
#        32499
#        56753
#        69273
#        85041
#        101630
#        120776
#        136228
#        145258
#        161740
#        177007
#        190616
#        222079
#        238550
#        252888
#        265159
#        280458
#        296081
#
# Disc length: 4232 seconds
#
# Revision: 4
# Processed by: cddbd v1.5.2PL0 Copyright (c) Steve Scherf et al.
# Submitted via: ExactAudioCopy v1.0b3
#
DISCID=fb108612
DTITLE=Green, Peter - Fleetwood Mac - Jumping At Shadows - The Blues Ye
DTITLE=ars [Disc 1]
DYEAR=2002
DGENRE=Blues
TTITLE0=Fleetwood Mac - Black Magic Woman (Live)
TTITLE1=Fleetwood Mac - Jumpin' At Shadows (Live)
TTITLE2=Fleetwood Mac - Oh Well (Live)
TTITLE3=Brunning Sunflower Blues Band - Ride With Your Daddy Tonight
TTITLE4=Green, Peter - Do You Give A Damn For Me?
TTITLE5=Fleetwood Mac - Love That Burns
TTITLE6=Fleetwood Mac - World In Harmony
TTITLE7=Fleetwood Mac - Long Grey Mare
TTITLE8=Fleetwood Mac - Talk To Me Baby
TTITLE9=Fleetwood Mac - Fast Talking Woman Blues
TTITLE10=Fleetwood Mac - Man Of The World (Early Version)
TTITLE11=Brunning Sunflower Blues Band - If You Let Me Love You
TTITLE12=Fleetwood Mac - My Baby's Sweeter
TTITLE13=Fleetwood Mac - Like It This Way
TTITLE14=Fleetwood Mac - The Madge Sessions No.2
TTITLE15=Fleetwood Mac - Lazy Poker Blues
TTITLE16=Fleetwood Mac - I Have To Laugh
TTITLE17=Fleetwood Mac - The Green Manalishi
EXTD=01. Black Magic Woman (Live)    [0:07:11.24]   Fleetwood Mac\n02.
EXTD=Jumpin' At Shdows (Live)   [0:05:23.29]   Fleetwood Mac\n03. Oh 
EXTD=Well  (Live)   [0:02:46.70]   Fleetwood Mac\n04. Ride With Your D
EXTD=addy Tonight    [0:03:30.18]   Brunning Sunflower Blues Band\n05.
EXTD=Do You Give A Damn For Me    [0:03:41.14]   Peter Green \n06. Lo
EXTD=ve That Burns    [0:04:15.21]   Fleetwood Mac\n07. World In Harmo
EXTD=ny    [0:03:26.02]   Fleetwood Mac\n08. Long Grey Mare    [0:02:0
EXTD=0.30]   Fleetwood Mac\n09. Talk To Me Baby    [0:03:39.57]   Flee
EXTD=twood Mac\n10. Fast Talking Woman Blues    [0:03:23.42]   Fleetwo
EXTD=od Mac\n11. Man Of The World  (Early Version)  [0:03:01.34]   Fle
EXTD=etwood Mac\n12. If You Let Me Love You    [0:06:59.38]   Brunning
EXTD=Sunflower Blues Band\n13. My Baby's Sweeter    [0:03:39.46]   Fl
EXTD=eetwood Mac\n14. Like It This Way    [0:03:11.13]   Fleetwood Mac
EXTD=\n15. The Madge Sessions No2    [0:02:43.46]   Fleetwood Mac\n16.
EXTD=Lazy Poker Blues    [0:03:23.74]   Fleetwood Mac\n17. I Have To 
EXTD=Laugh    [0:03:28.23]   Fleetwood Mac\n18. The Green Manalishi   
EXTD=[0:04:44.62]   Fleetwood Mac YEAR: 2002
EXTT0=
EXTT1=
EXTT2=
EXTT3=
EXTT4=
EXTT5=
EXTT6=
EXTT7=
EXTT8=
EXTT9=
EXTT10=
EXTT11=
EXTT12=
EXTT13=
EXTT14=
EXTT15=
EXTT16=
EXTT17=
PLAYORDER=
